<?xml version="1.0" encoding="UTF-8"?>
<svg width="22px" height="22px" viewBox="0 0 22 22" version="1.1" xmlns="http://www.w3.org/2000/svg" xmlns:xlink="http://www.w3.org/1999/xlink">
    <title>github</title>
    <g id="Page-2" stroke="none" stroke-width="1" fill="none" fill-rule="evenodd">
        <g id="Desktop-HD" transform="translate(-1042.000000, -61.000000)" fill="#FFFFFF" fill-rule="nonzero">
            <g id="github" transform="translate(1042.000000, 61.000000)">
                <path d="M10.998625,0 C4.92525,0 0,4.83006873 0,10.7884071 C0,15.5540033 3.1515,19.5969696 7.524,21.024768 C8.074,21.1241632 8.27475,20.791055 8.27475,20.5049581 C8.27475,20.2484111 8.265125,19.5701061 8.259625,18.6701767 C5.20025,19.3216181 4.554,17.2235738 4.554,17.2235738 C4.054875,15.9771044 3.333,15.6453394 3.333,15.6453394 C2.333375,14.9764367 3.40725,14.9898685 3.40725,14.9898685 C4.511375,15.0664296 5.091625,16.10202 5.091625,16.10202 C6.073375,17.7500996 7.667,17.2746146 8.294,16.9979199 C8.393,16.3008104 8.677625,15.8253253 8.9925,15.5553465 C6.5505,15.2826813 3.982,14.3572316 3.982,10.2242723 C3.982,9.04630504 4.411,8.08324628 5.115,7.32838015 C5.000875,7.05571498 4.624125,5.9583384 5.22225,4.47412652 C5.22225,4.47412652 6.14625,4.18400003 8.24725,5.57956216 C9.1245,5.34047644 10.065,5.22093358 11.001375,5.21690405 C11.935,5.22227676 12.876875,5.34047644 13.7555,5.58090534 C15.855125,4.18534321 16.77775,4.47546969 16.77775,4.47546969 C17.37725,5.96102476 17.0005,7.05705816 16.88775,7.32972333 C17.593125,8.08458946 18.018,9.04764822 18.018,10.2256155 C18.018,14.3693202 15.44675,15.2813381 12.9965,15.5486306 C13.391125,15.8817388 13.743125,16.5398961 13.743125,17.5459366 C13.743125,18.9885099 13.729375,20.1517022 13.729375,20.5049581 C13.729375,20.7937414 13.927375,21.1295359 14.485625,21.0234249 C18.85125,19.5942833 22,15.5526601 22,10.7884071 C22,4.83006873 17.07475,0 10.998625,0 Z" id="Path"></path>
            </g>
        </g>
    </g>
</svg>