<?xml version="1.0" encoding="UTF-8"?>
<svg width="496px" height="496px" viewBox="0 0 496 496" version="1.1" xmlns="http://www.w3.org/2000/svg" xmlns:xlink="http://www.w3.org/1999/xlink">
    <title>logo3</title>
    <g id="Page-2" stroke="none" stroke-width="1" fill="none" fill-rule="evenodd">
        <g id="Desktop-HD" transform="translate(-913.000000, -461.000000)" fill-rule="nonzero">
            <g id="logo3" transform="translate(913.000000, 461.000000)">
                <g id="Group" transform="translate(18.750245, 6.991855)">
                    <path d="M126.057755,284.616145 C118.177755,282.304145 109.873755,281.008145 101.249755,281.008145 C52.6497547,281.008145 13.2497547,320.408145 13.2497547,369.008145 C13.2497547,417.608145 52.6497547,457.008145 101.249755,457.008145 C149.849755,457.008145 189.249755,417.608145 189.249755,369.008145 C189.249755,360.384145 187.953755,352.080145 185.641755,344.200145 C158.849755,332.864145 137.393755,311.408145 126.057755,284.616145 Z" id="Path" fill="#39FFC5"></path>
                    <path d="M357.249755,25.0081454 C308.649755,25.0081454 269.249755,64.4081454 269.249755,113.008145 C269.249755,121.632145 270.545755,129.936145 272.857755,137.816145 C299.649755,149.152145 321.113755,170.616145 332.441755,197.400145 C340.321755,199.712145 348.625755,201.008145 357.249755,201.008145 C405.849755,201.008145 445.249755,161.608145 445.249755,113.008145 C445.249755,64.4081454 405.849755,25.0081454 357.249755,25.0081454 Z" id="Path" fill="#39FFC5"></path>
                    <circle id="Oval" fill="#39FFC5" cx="229.249755" cy="241.008145" r="88"></circle>
                    <path d="M229.249755,313.008145 C189.545755,313.008145 157.249755,280.704145 157.249755,241.008145 C157.249755,224.416145 163.041755,208.216145 173.553755,195.400145 L161.177755,185.248145 C148.329755,200.920145 141.249755,220.720145 141.249755,241.008145 C141.249755,289.528145 180.729755,329.008145 229.249755,329.008145 C249.529755,329.008145 269.329755,321.928145 285.001755,309.080145 L274.857755,296.704145 C262.041755,307.216145 245.841755,313.008145 229.249755,313.008145 Z" id="Path" fill-opacity="0.15" fill="#000000"></path>
                    <path d="M108.249755,445.008145 C68.5457547,445.008145 36.2497547,412.704145 36.2497547,373.008145 C36.2497547,356.416145 42.0417547,340.216145 52.5537547,327.400145 L40.1777547,317.248145 C27.3297547,332.920145 20.2497547,352.720145 20.2497547,373.008145 C20.2497547,421.528145 59.7297547,461.008145 108.249755,461.008145 C128.529755,461.008145 148.329755,453.928145 164.001755,441.080145 L153.857755,428.704145 C141.041755,439.216145 124.841755,445.008145 108.249755,445.008145 Z" id="Path" fill-opacity="0.15" fill="#000000" transform="translate(92.125755, 389.128145) rotate(-20.000000) translate(-92.125755, -389.128145) "></path>
                    <path d="M382.249755,148.008145 C342.545755,148.008145 310.249755,115.704145 310.249755,76.0081454 C310.249755,59.4161454 316.041755,43.2161454 326.553755,30.4001454 L314.177755,20.2481454 C301.329755,35.9201454 294.249755,55.7201454 294.249755,76.0081454 C294.249755,124.528145 333.729755,164.008145 382.249755,164.008145 C402.529755,164.008145 422.329755,156.928145 438.001755,144.080145 L427.857755,131.704145 C415.041755,142.216145 398.841755,148.008145 382.249755,148.008145 Z" id="Path" fill-opacity="0.15" fill="#000000" transform="translate(366.125755, 92.128145) rotate(160.000000) translate(-366.125755, -92.128145) "></path>
                    <path d="M229.249755,153.008145 C208.969755,153.008145 189.169755,160.088145 173.497755,172.936145 L183.641755,185.312145 C196.457755,174.800145 212.657755,169.008145 229.249755,169.008145 C268.953755,169.008145 301.249755,201.312145 301.249755,241.008145 C301.249755,257.600145 295.457755,273.800145 284.945755,286.616145 L297.321755,296.768145 C310.169755,281.096145 317.249755,261.296145 317.249755,241.008145 C317.249755,192.488145 277.769755,153.008145 229.249755,153.008145 Z" id="Path" fill-opacity="0.15" fill="#000000"></path>
                </g>
                <path d="M376,0 C309.832,0 256,53.832 256,120 C256,122.712 256.136,125.52 256.368,128.424 C253.592,128.232 250.824,128 248,128 C227.896,128 208.968,133.024 192.312,141.8 L174.272,83.184 C180.144,78.808 184,71.872 184,64 C184,50.768 173.232,40 160,40 C146.768,40 136,50.768 136,64 C136,76.888 146.224,87.352 158.976,87.896 L178.256,150.536 C175.088,152.808 172.04,155.232 169.112,157.792 L99.464,88.144 C102.28,83.392 104,77.92 104,72 C104,54.352 89.648,40 72,40 C54.352,40 40,54.352 40,72 C40,89.648 54.352,104 72,104 C77.92,104 83.392,102.28 88.152,99.464 L157.8,169.112 C155.232,172.04 152.816,175.088 150.536,178.256 L87.896,158.984 C87.352,146.232 76.888,136 64,136 C50.768,136 40,146.768 40,160 C40,173.232 50.768,184 64,184 C71.872,184 78.808,180.144 83.184,174.272 L141.8,192.304 C133.024,208.968 128,227.896 128,248 C128,250.824 128.232,253.592 128.424,256.376 C125.52,256.136 122.712,256 120,256 C53.832,256 0,309.832 0,376 C0,442.168 53.832,496 120,496 C186.168,496 240,442.168 240,376 C240,373.288 239.864,370.48 239.632,367.576 C242.408,367.768 245.176,368 248,368 C268.104,368 287.032,362.976 303.688,354.2 L321.72,412.816 C315.856,417.2 312,424.128 312,432 C312,445.232 322.768,456 336,456 C349.232,456 360,445.232 360,432 C360,419.112 349.768,408.648 337.016,408.104 L317.744,345.464 C320.912,343.192 323.96,340.768 326.888,338.2 L396.536,407.848 C393.72,412.608 392,418.08 392,424 C392,441.648 406.352,456 424,456 C441.648,456 456,441.648 456,424 C456,406.352 441.648,392 424,392 C418.08,392 412.608,393.72 407.848,396.536 L338.2,326.888 C340.768,323.96 343.184,320.912 345.464,317.744 L408.104,337.016 C408.648,349.768 419.112,360 432,360 C445.232,360 456,349.232 456,336 C456,322.768 445.232,312 432,312 C424.128,312 417.192,315.856 412.816,321.728 L354.2,303.688 C362.976,287.032 368,268.104 368,248 C368,245.176 367.768,242.408 367.576,239.624 C370.48,239.864 373.288,240 376,240 C442.168,240 496,186.168 496,120 C496,53.832 442.168,0 376,0 Z M224,376 C224,433.344 177.344,480 120,480 C62.656,480 16,433.344 16,376 C16,318.656 62.656,272 120,272 C123.288,272 126.856,272.28 130.584,272.704 C140.328,319.08 176.92,355.672 223.296,365.424 C223.712,369.144 224,372.704 224,376 Z M248,352 C190.656,352 144,305.344 144,248 C144,190.656 190.656,144 248,144 C305.344,144 352,190.656 352,248 C352,305.344 305.344,352 248,352 Z M329.312,160 L422.776,160 L433.968,92.832 L397.76,103.176 L375.968,85.752 L354.2,103.168 L318.032,92.824 L329.216,159.904 C313.6,145.496 294.248,135.104 272.704,130.576 C272.288,126.856 272,123.296 272,120 C272,62.656 318.656,16 376,16 C433.344,16 480,62.656 480,120 C480,177.344 433.344,224 376,224 C372.712,224 369.144,223.72 365.416,223.296 C360.208,198.512 347.256,176.6 329.312,160 L329.312,160 Z M337.968,115.168 L357.752,120.824 L375.968,106.24 L394.208,120.816 L414.032,115.16 L409.224,144 L342.768,144 L337.968,115.168 Z" id="Shape" fill="#000000"></path>
                <g id="Group-2" transform="translate(56.000000, 56.000000)" fill="#FFFFFF">
                    <path d="M96,8 C96,3.592 99.584,0 104,0 C108.416,0 112,3.592 112,8 C112,12.408 108.416,16 104,16 C99.584,16 96,12.408 96,8 Z" id="Path"></path>
                    <path d="M8,112 C3.584,112 0,108.408 0,104 C0,99.592 3.584,96 8,96 C12.416,96 16,99.592 16,104 C16,108.408 12.416,112 8,112 Z" id="Path"></path>
                    <path d="M288,376 C288,380.408 284.416,384 280,384 C275.584,384 272,380.408 272,376 C272,371.592 275.584,368 280,368 C284.416,368 288,371.592 288,376 Z" id="Path"></path>
                    <path d="M376,272 C380.416,272 384,275.592 384,280 C384,284.408 380.416,288 376,288 C371.584,288 368,284.408 368,280 C368,275.592 371.584,272 376,272 Z" id="Path"></path>
                    <path d="M368,352 C376.824,352 384,359.176 384,368 C384,376.824 376.824,384 368,384 C359.176,384 352,376.824 352,368 C352,359.176 359.176,352 368,352 Z" id="Path"></path>
                    <path d="M16,32 C7.176,32 0,24.824 0,16 C0,7.176 7.176,0 16,0 C24.824,0 32,7.176 32,16 C32,24.824 24.824,32 16,32 Z" id="Path"></path>
                </g>
                <path d="M256,209.472 L256,192 L240,192 L240,208 L224,208 L224,288 L240,288 L240,304 L256,304 L256,286.528 C265.288,283.216 272,274.416 272,264 C272,257.856 269.68,252.248 265.872,248 C269.68,243.752 272,238.144 272,232 C272,221.584 265.288,212.784 256,209.472 Z M248,272 L240,272 L240,256 L248,256 C252.416,256 256,259.592 256,264 C256,268.408 252.416,272 248,272 Z M248,240 L240,240 L240,224 L248,224 C252.416,224 256,227.592 256,232 C256,236.408 252.416,240 248,240 Z" id="Shape" fill="#000000"></path>
                <path d="M92,328 L62,368 L120,445.336 L178,368 L148,328 L92,328 Z M104,360 L88,360 L96,349.336 L104,360 Z M112,344 L128,344 L120,354.664 L112,344 Z M112,376 L112,408 L88,376 L112,376 Z M128,376 L152,376 L128,408 L128,376 Z M136,360 L144,349.336 L152,360 L136,360 Z" id="Shape" fill="#000000"></path>
            </g>
        </g>
    </g>
</svg>